<svg width="18" height="19" viewBox="0 0 18 19" fill="none" xmlns="http://www.w3.org/2000/svg">
<path d="M2 0.319336C0.897 0.319336 0 1.21634 0 2.31934V16.3193C0 17.4223 0.897 18.3193 2 18.3193H8.62109H11.4141H16C17.103 18.3193 18 17.4223 18 16.3193V2.31934C18 1.21634 17.103 0.319336 16 0.319336H2ZM2 2.31934H16L16.002 16.3193H11.4141V12.3545H13.7793L14.1309 9.62988H11.4297V7.89355C11.4297 7.10555 11.6493 6.57324 12.7793 6.57324H14.207V4.1416C13.512 4.0706 12.8142 4.03609 12.1152 4.03809C10.0412 4.03809 8.62109 5.30393 8.62109 7.62793V9.63379H6.27734V12.3584H8.62109V16.3193H2V2.31934Z" fill="white"/>
</svg>
