<svg width="24" height="25" viewBox="0 0 24 25" fill="none" xmlns="http://www.w3.org/2000/svg">
<path d="M12 4.31934C12 4.31934 5.74555 4.3193 4.18555 4.7373C3.32455 4.9673 2.64797 5.64488 2.41797 6.50488C1.99997 8.06488 2 12.3193 2 12.3193C2 12.3193 1.99997 16.5738 2.41797 18.1338C2.64797 18.9948 3.32555 19.6714 4.18555 19.9014C5.74555 20.3194 12 20.3193 12 20.3193C12 20.3193 18.2545 20.3194 19.8145 19.9014C20.6745 19.6714 21.352 18.9938 21.582 18.1338C22 16.5738 22 12.3193 22 12.3193C22 12.3193 22 8.06488 21.582 6.50488C21.352 5.64488 20.6745 4.9673 19.8145 4.7373C18.2545 4.3193 12 4.31934 12 4.31934ZM12 6.31934C14.882 6.31934 18.4909 6.45295 19.2969 6.66895C19.4659 6.71395 19.6044 6.85246 19.6504 7.02246C19.8914 7.92046 20 10.6613 20 12.3193C20 13.9773 19.8914 16.7172 19.6504 17.6162C19.6054 17.7852 19.4669 17.9237 19.2969 17.9697C18.4919 18.1857 14.882 18.3193 12 18.3193C9.119 18.3193 5.51012 18.1857 4.70312 17.9697C4.53413 17.9247 4.39561 17.7862 4.34961 17.6162C4.10861 16.7182 4 13.9773 4 12.3193C4 10.6613 4.10861 7.92051 4.34961 7.02051C4.39461 6.85251 4.53312 6.71395 4.70312 6.66895C5.50813 6.45295 9.118 6.31934 12 6.31934ZM10 8.85449V15.7842L16 12.3193L10 8.85449Z" fill="white"/>
</svg>
